<svg width="600" height="400" viewBox="0 0 600 400" fill="none" xmlns="http://www.w3.org/2000/svg">
  <!-- Abstract premium shape representing production infrastructure -->
  <rect x="50" y="100" width="150" height="120" rx="12" fill="#F1F5F9" stroke="#CBD5E1" stroke-width="2"/>
  <rect x="60" y="110" width="130" height="30" rx="4" fill="#E3E3E3"/>
  <rect x="60" y="150" width="80" height="20" rx="4" fill="#CBD5E1"/>
  <rect x="60" y="180" width="100" height="20" rx="4" fill="#CBD5E1"/>
  
  <rect x="230" y="100" width="150" height="120" rx="12" fill="#F1F5F9" stroke="#CBD5E1" stroke-width="2"/>
  <rect x="240" y="110" width="130" height="30" rx="4" fill="#E3E3E3"/>
  <rect x="240" y="150" width="90" height="20" rx="4" fill="#CBD5E1"/>
  <rect x="240" y="180" width="110" height="20" rx="4" fill="#CBD5E1"/>
  
  <rect x="410" y="100" width="150" height="120" rx="12" fill="#F1F5F9" stroke="#CBD5E1" stroke-width="2"/>
  <rect x="420" y="110" width="130" height="30" rx="4" fill="#E3E3E3"/>
  <rect x="420" y="150" width="70" height="20" rx="4" fill="#CBD5E1"/>
  <rect x="420" y="180" width="120" height="20" rx="4" fill="#CBD5E1"/>
  
  <!-- Connection lines -->
  <path d="M200 160 L230 160" stroke="#2563EB" stroke-width="2" stroke-dasharray="4 4"/>
  <path d="M380 160 L410 160" stroke="#2563EB" stroke-width="2" stroke-dasharray="4 4"/>
  
  <!-- Status indicators -->
  <circle cx="560" cy="120" r="6" fill="#10B981"/>
  <circle cx="560" cy="180" r="6" fill="#10B981"/>
  <circle cx="560" cy="240" r="6" fill="#10B981"/>
</svg>
